<svg width="205" height="115" viewBox="0 0 205 115" fill="none" xmlns="http://www.w3.org/2000/svg">
<path d="M61.875 23.9062H75.625V27.3438H61.875C61.4192 27.3438 60.982 27.1627 60.6597 26.8403C60.3373 26.518 60.1562 26.0808 60.1562 25.625C60.1562 25.1692 60.3373 24.732 60.6597 24.4097C60.982 24.0873 61.4192 23.9062 61.875 23.9062Z" fill="white"/>
<path d="M15.4688 41.0938H63.5938V82.3438H15.4688V41.0938Z" fill="white"/>
<path d="M60.1562 41.0938V65.1562C60.1562 67.8913 59.0698 70.5143 57.1358 72.4483C55.2018 74.3823 52.5788 75.4687 49.8438 75.4688H15.4688V82.3438H63.5938V41.0938H60.1562Z" fill="white"/>
<path d="M73.9062 27.3438V37.6562C73.9063 40.3913 74.9927 43.0143 76.9267 44.9483C78.8607 46.8823 81.4837 47.9688 84.2188 47.9688V54.8438H94.5312V47.9688C95.5642 47.4523 96.4329 46.6584 97.04 45.6761C97.6471 44.6937 97.9687 43.5617 97.9688 42.4069V27.3438H73.9062Z" fill="white"/>
<path d="M94.5312 54.8438H80.7812C78.0462 54.8438 75.4232 55.9302 73.4892 57.8642C71.5552 59.7982 70.4688 62.4212 70.4688 65.1562V102.969H104.844V65.1562C104.844 62.4212 103.757 59.7982 101.823 57.8642C99.8893 55.9302 97.2663 54.8438 94.5312 54.8438Z" fill="white"/>
<path d="M94.5312 78.9062V68.5938C94.5312 66.7704 93.8069 65.0217 92.5176 63.7324C91.2283 62.4431 89.4796 61.7188 87.6562 61.7188C85.8329 61.7188 84.0842 62.4431 82.7949 63.7324C81.5056 65.0217 80.7812 66.7704 80.7812 68.5938V75.4688C80.7812 76.3804 80.4191 77.2548 79.7744 77.8994C79.1298 78.5441 78.2554 78.9062 77.3438 78.9062H56.7188V92.6562H80.7812C84.428 92.6562 87.9253 91.2076 90.504 88.629C93.0826 86.0503 94.5312 82.553 94.5312 78.9062Z" fill="white"/>
<path d="M56.7188 77.1875H46.4062V82.3438V89.2188V94.375H56.7188V92.6562V78.9062V77.1875Z" fill="white"/>
<path d="M99.6875 27.3438V23.9062C99.6875 20.2595 98.2388 16.7622 95.6602 14.1835C93.0816 11.6049 89.5842 10.1563 85.9375 10.1562C82.2908 10.1563 78.7934 11.6049 76.2148 14.1835C73.6362 16.7622 72.1875 20.2595 72.1875 23.9062V27.3438H99.6875Z" fill="white"/>
<path d="M39.5312 54.8438L44.6875 58.2812V41.0938H34.375V58.2812L39.5312 54.8438Z" fill="white"/>
<path d="M32.6562 82.3438C32.6562 84.1671 33.3806 85.9158 34.6699 87.2051C35.9592 88.4944 37.7079 89.2188 39.5312 89.2188H46.4062V82.3438H32.6562Z" fill="white"/>
<path d="M70.4688 102.969H104.844V109.844H70.4688V102.969Z" fill="white"/>
<path d="M138.992 54.888H128.432L125.808 65H117.808L130.8 19.88H137.136L150.192 65H141.744L138.992 54.888ZM130.16 48.232H137.584L135.024 37.8L134 30.76H133.744L132.656 37.864L130.16 48.232ZM175.791 53.736C175.791 55.528 175.812 57.32 175.855 59.112C175.897 60.904 176.068 62.888 176.367 65.064H170.991L169.967 61.352H169.711C168.26 64.3387 165.721 65.832 162.095 65.832C158.852 65.832 156.292 64.552 154.415 61.992C152.58 59.432 151.663 55.272 151.663 49.512C151.663 43.88 152.665 39.6133 154.671 36.712C156.676 33.768 159.663 32.296 163.631 32.296C164.655 32.296 165.508 32.36 166.191 32.488C166.873 32.616 167.535 32.8293 168.175 33.128V20.2H175.791V53.736ZM163.887 58.856C165.039 58.856 165.956 58.5787 166.639 58.024C167.321 57.4267 167.833 56.5733 168.175 55.464V40.36C167.748 39.976 167.257 39.6987 166.703 39.528C166.191 39.3573 165.508 39.272 164.655 39.272C162.948 39.272 161.668 40.04 160.815 41.576C159.961 43.112 159.535 45.8427 159.535 49.768C159.535 52.712 159.876 54.9733 160.559 56.552C161.284 58.088 162.393 58.856 163.887 58.856ZM181.379 34.92C182.659 34.152 184.259 33.5333 186.179 33.064C188.099 32.5947 190.275 32.36 192.707 32.36C196.333 32.36 198.851 33.2987 200.259 35.176C201.709 37.0533 202.435 39.72 202.435 43.176C202.435 45.1813 202.371 47.1653 202.243 49.128C202.157 51.048 202.093 52.9467 202.051 54.824C202.008 56.6587 202.029 58.4507 202.115 60.2C202.243 61.9067 202.541 63.528 203.011 65.064H196.803L195.587 61.16H195.331C194.648 62.3973 193.688 63.4213 192.451 64.232C191.213 65.0427 189.656 65.448 187.779 65.448C185.261 65.448 183.277 64.616 181.827 62.952C180.376 61.2453 179.651 58.984 179.651 56.168C179.651 52.328 181.016 49.5973 183.747 47.976C186.477 46.3547 190.168 45.672 194.819 45.928C195.032 43.4533 194.861 41.6613 194.307 40.552C193.795 39.4427 192.664 38.888 190.915 38.888C189.635 38.888 188.312 39.0373 186.947 39.336C185.581 39.6347 184.365 40.0613 183.299 40.616L181.379 34.92ZM190.531 58.92C191.683 58.92 192.621 58.6427 193.347 58.088C194.072 57.4907 194.605 56.8507 194.947 56.168V50.856C193.965 50.728 193.027 50.7067 192.131 50.792C191.235 50.8773 190.445 51.0693 189.763 51.368C189.08 51.6667 188.525 52.1147 188.099 52.712C187.715 53.2667 187.523 53.992 187.523 54.888C187.523 56.2107 187.779 57.2133 188.291 57.896C188.845 58.5787 189.592 58.92 190.531 58.92Z" fill="white"/>
<path d="M118.6 103L123.4 86.32H126.88L131.656 103H130.192L128.848 98.392H121.408L120.088 103H118.6ZM124.48 87.616L121.768 97.072H128.488L125.776 87.616H124.48ZM134.05 108.4V91H135.466V91.912C136.714 91.144 138.026 90.76 139.402 90.76C140.794 90.76 141.826 91.248 142.498 92.224C143.186 93.2 143.53 94.792 143.53 97C143.53 99.192 143.13 100.784 142.33 101.776C141.53 102.752 140.202 103.24 138.346 103.24C137.354 103.24 136.394 103.136 135.466 102.928V108.4H134.05ZM139.114 92.056C138.586 92.056 138.018 92.144 137.41 92.32C136.802 92.496 136.33 92.68 135.994 92.872L135.466 93.136V101.68C136.554 101.872 137.498 101.968 138.298 101.968C139.674 101.968 140.642 101.584 141.202 100.816C141.762 100.032 142.042 98.752 142.042 96.976C142.042 95.184 141.794 93.92 141.298 93.184C140.818 92.432 140.09 92.056 139.114 92.056ZM146.757 103V85.672H148.173V103H146.757ZM151.909 103V91H153.325V103H151.909ZM151.909 88V86.2H153.325V88H151.909ZM158.341 103H156.925V85.672H158.341V95.992L160.381 95.944L164.077 91H165.733L161.629 96.496L165.925 103H164.245L160.405 97.216L158.341 97.264V103ZM176.361 94.576V101.008C176.425 101.6 176.945 101.952 177.921 102.064L177.849 103.216C176.617 103.216 175.713 102.896 175.137 102.256C173.633 102.912 172.129 103.24 170.625 103.24C169.553 103.24 168.737 102.936 168.177 102.328C167.617 101.704 167.337 100.824 167.337 99.688C167.337 98.536 167.617 97.688 168.177 97.144C168.753 96.584 169.649 96.24 170.865 96.112L174.945 95.704V94.576C174.945 93.68 174.745 93.04 174.345 92.656C173.961 92.256 173.441 92.056 172.785 92.056C171.761 92.056 170.433 92.152 168.801 92.344L168.057 92.416L167.985 91.264C169.745 90.928 171.281 90.76 172.593 90.76C173.921 90.76 174.881 91.072 175.473 91.696C176.065 92.32 176.361 93.28 176.361 94.576ZM168.825 99.592C168.825 101.208 169.489 102.016 170.817 102.016C171.393 102.016 172.025 101.952 172.713 101.824C173.401 101.68 173.945 101.536 174.345 101.392L174.945 101.176V96.832L171.033 97.24C170.249 97.304 169.681 97.528 169.329 97.912C168.993 98.296 168.825 98.856 168.825 99.592ZM183.705 92.08C181.817 92.08 180.873 92.76 180.873 94.12C180.873 94.744 181.081 95.184 181.497 95.44C181.913 95.696 182.849 95.952 184.305 96.208C185.777 96.448 186.809 96.784 187.401 97.216C188.009 97.648 188.313 98.48 188.313 99.712C188.313 100.928 187.921 101.824 187.137 102.4C186.353 102.96 185.201 103.24 183.681 103.24C182.801 103.24 181.665 103.128 180.273 102.904L179.577 102.808L179.673 101.536C181.465 101.808 182.841 101.944 183.801 101.944C184.761 101.944 185.505 101.776 186.033 101.44C186.577 101.104 186.849 100.536 186.849 99.736C186.849 98.936 186.625 98.408 186.177 98.152C185.745 97.88 184.801 97.632 183.345 97.408C181.905 97.184 180.889 96.864 180.297 96.448C179.705 96.032 179.409 95.248 179.409 94.096C179.409 92.944 179.817 92.104 180.633 91.576C181.449 91.048 182.457 90.784 183.657 90.784C184.617 90.784 185.817 90.888 187.257 91.096L187.905 91.192L187.857 92.464C186.145 92.208 184.761 92.08 183.705 92.08ZM191.214 103V91H192.63V103H191.214ZM191.214 88V86.2H192.63V88H191.214Z" fill="white"/>
</svg>
