<svg width="32" height="32" viewBox="0 0 32 32" fill="none" xmlns="http://www.w3.org/2000/svg">
<path d="M27.5 5H20V10H27.5V5Z" fill="#C8C8C8"/>
<path d="M16 24.5C12.416 24.5 9.5 21.584 9.5 18C9.5 14.416 12.416 11.5 16 11.5C19.584 11.5 22.5 14.416 22.5 18C22.5 21.584 19.584 24.5 16 24.5Z" fill="#C8C8C8"/>
<path d="M28 27.919V5L26.8905 0.5H5.1095L4 4.9385V27.919L3.5 29.419V31.5H28.5V29.419L28 27.919ZM5 25.5V10.5H27V25.5H25V26.5H27V27.5H5V26.5H24V25.5H5ZM10.5 5.5V9.5H5V5.5H10.5ZM27 9.5H11.5V5.5H27V9.5ZM26.1095 1.5L26.8595 4.5H5.1405L5.8905 1.5H26.1095ZM27.5 30.5H4.5V29.581L4.8605 28.5H27.14L27.5 29.581V30.5Z" fill="#C8C8C8"/>
<path d="M16 13.5C13.519 13.5 11.5 15.5185 11.5 18C11.5 20.4815 13.519 22.5 16 22.5C17.5005 22.5 18.8985 21.737 19.7305 20.5H22.5V19.5H20V16.5H22.5V15.5H19.7305C18.8985 14.263 17.5005 13.5 16 13.5ZM16 21.5C14.07 21.5 12.5 19.9295 12.5 18C12.5 16.0705 14.07 14.5 16 14.5C17.2265 14.5 18.369 15.1525 19 16.203V19.7975C18.369 20.8475 17.2265 21.5 16 21.5Z" fill="#C8C8C8"/>
<path d="M13.5 8H14.592C14.799 8.5805 15.349 9 16 9C16.651 9 17.201 8.5805 17.408 8H18.5V7H17.408C17.201 6.4195 16.651 6 16 6C15.349 6 14.799 6.4195 14.592 7H13.5V8ZM16 7C16.2755 7 16.5 7.224 16.5 7.5C16.5 7.776 16.2755 8 16 8C15.7245 8 15.5 7.776 15.5 7.5C15.5 7.224 15.7245 7 16 7Z" fill="#C8C8C8"/>
<path d="M22 7H21V8H22V7Z" fill="#C8C8C8"/>
<path d="M24 7H23V8H24V7Z" fill="#C8C8C8"/>
<path d="M26 7H25V8H26V7Z" fill="#C8C8C8"/>
<path d="M13 2.5H7V3.5H13V2.5Z" fill="#C8C8C8"/>
<path d="M15 2.5H14V3.5H15V2.5Z" fill="#C8C8C8"/>
<path d="M9.5 7H6V8H9.5V7Z" fill="#C8C8C8"/>
</svg>
