<svg width="32" height="32" viewBox="0 0 32 32" fill="none" xmlns="http://www.w3.org/2000/svg">
<path d="M15.9945 3.87298L14.924 3.27348L13.8525 3.87298L12.7815 3.27348L11.711 3.87298L10.6405 3.27348L9.57002 3.87298L8.25552 3.13598L8.74452 2.26398L9.57002 2.72648L10.6405 2.12698L11.711 2.72648L12.7815 2.12698L13.8525 2.72648L14.924 2.12698L15.9945 2.72648L17.0645 2.12698L18.1355 2.72698L19.207 2.12748L20.2795 2.72698L21.3515 2.12748L22.426 2.72698L23.2565 2.26348L23.7435 3.13648L22.426 3.87248L21.3515 3.27298L20.2795 3.87248L19.207 3.27298L18.1355 3.87248L17.0645 3.27348L15.9945 3.87298Z" fill="#55CB95"/>
<path d="M8.28352 6.43299L6.75552 5.57599L7.24452 4.70399L8.28352 5.28649L9.56852 4.56699L10.853 5.28649L12.138 4.56699L13.423 5.28649L14.7085 4.56699L15.994 5.28649L17.2775 4.56699L18.5625 5.28649L19.8485 4.56749L21.1355 5.28699L22.4225 4.56749L23.711 5.28699L24.7565 4.70349L25.2435 5.57649L23.711 6.43249L22.4225 5.71299L21.1355 6.43249L19.8485 5.71299L18.5625 6.43299L17.2775 5.71349L15.994 6.43299L14.7085 5.71349L13.423 6.43299L12.138 5.71349L10.853 6.43299L9.56852 5.71349L8.28352 6.43299Z" fill="#55CB95"/>
<path d="M28.5 20H30.9715L27.757 15.5H27V13H24.5V8H26.837L22.799 0.5H9.20098L5.16298 8H7.49998V13H4.99998V15.5H4.24248L1.02798 20H3.49998V30.5H2.49998V31.5H29.5V30.5H28.5V20ZM26 15.5H25V14H26V15.5ZM23 14H24V15.5H23V14ZM9.79898 1.5H22.2015L25.1635 7H6.83698L9.79898 1.5ZM8.99998 15.5H7.99998V14H8.99998V15.5ZM5.99998 14H6.99998V15.5H5.99998V14ZM4.49998 20H6.49998V19H2.97148L4.75698 16.5H9.49998V16H9.99998V14H13V13H8.49998V8H23.5V13H19V14H22V16H22.5V16.5H27.2425L29.028 19H25.5V20H27.5V30.5H26.5V29H25.5V30.5H21.5V29H20.5V30.5H19V22.5H13V30.5H11.5V29H10.5V30.5H6.49998V29H5.49998V30.5H4.49998V20ZM18 30.5H14V23.5H18V30.5Z" fill="#55CB95"/>
<path d="M16 21.5C17.3785 21.5 18.5 20.3785 18.5 19C18.5 17.6215 17.3785 16.5 16 16.5C14.6215 16.5 13.5 17.6215 13.5 19C13.5 20.3785 14.6215 21.5 16 21.5ZM14.592 19.5H15.5V20.408C15.0765 20.257 14.743 19.9235 14.592 19.5ZM16.5 20.408V19.5H17.408C17.257 19.9235 16.9235 20.257 16.5 20.408ZM17.408 18.5H16.5V17.592C16.9235 17.743 17.257 18.0765 17.408 18.5ZM15.5 17.592V18.5H14.592C14.743 18.0765 15.0765 17.743 15.5 17.592Z" fill="#55CB95"/>
<path d="M9 19.5H8V26H9V19.5Z" fill="#55CB95"/>
<path d="M24 19.5H23V26H24V19.5Z" fill="#55CB95"/>
<path d="M16 26.5H15V27.5H16V26.5Z" fill="#55CB95"/>
<path d="M22.5 9H19.5V12H22.5V9ZM21.5 11H20.5V10H21.5V11Z" fill="#55CB95"/>
<path d="M9.5 12H12.5V9H9.5V12ZM10.5 10H11.5V11H10.5V10Z" fill="#55CB95"/>
<path d="M31.5 30.5H30.5V31.5H31.5V30.5Z" fill="#55CB95"/>
<path d="M1.5 30.5H0.5V31.5H1.5V30.5Z" fill="#55CB95"/>
<path d="M10.5 29.5H6.5C5.673 29.5 5 28.827 5 28C5 27.2935 5.491 26.699 6.15 26.541C6.4255 25.921 7.049 25.5 7.75 25.5C8.0115 25.5 8.266 25.5585 8.5 25.672C8.734 25.5585 8.9885 25.5 9.25 25.5C9.951 25.5 10.5745 25.921 10.85 26.541C11.509 26.699 12 27.2935 12 28C12 28.827 11.327 29.5 10.5 29.5Z" fill="#55CB95"/>
<path d="M25.5 29.5H21.5C20.673 29.5 20 28.827 20 28C20 27.2935 20.491 26.699 21.15 26.541C21.4255 25.921 22.049 25.5 22.75 25.5C23.0115 25.5 23.266 25.5585 23.5 25.672C23.734 25.5585 23.9885 25.5 24.25 25.5C24.951 25.5 25.5745 25.921 25.85 26.541C26.509 26.699 27 27.2935 27 28C27 28.827 26.327 29.5 25.5 29.5Z" fill="#55CB95"/>
<path d="M24.4925 20.5H24.336C24.012 20.5 23.6905 20.3925 23.431 20.198L16 14.625L8.5685 20.198C8.3095 20.3925 7.9885 20.5 7.664 20.5H7.5075C6.6765 20.5 6 19.8235 6 18.9925C6 18.5305 6.218 18.086 6.582 17.8025L14.7985 11.4125C15.482 10.8805 16.518 10.8805 17.202 11.4125L25.419 17.803C25.782 18.086 26 18.531 26 18.9925C26 19.8235 25.3235 20.5 24.4925 20.5Z" fill="#55CB95"/>
</svg>
