<svg width="32" height="32" viewBox="0 0 32 32" fill="none" xmlns="http://www.w3.org/2000/svg">
<path d="M20.5 25H11.5V31H20.5V25Z" fill="#C8C8C8"/>
<path d="M27.121 17.515C24.9895 16.9815 23.5 15.0745 23.5 12.877V8C23.5 3.8645 20.1355 0.5 16 0.5C11.8645 0.5 8.49999 3.8645 8.49999 8V12.877C8.49999 15.075 7.01049 16.9815 4.87899 17.515L4.19049 17.687L4.91999 18.781C5.54349 19.7165 6.39799 20.4495 7.40799 20.9215C7.47399 20.8955 7.53649 20.8635 7.60549 20.842L13.5 19V16.8305C12.2825 16.126 11.3895 14.923 11.1005 13.5H11C9.89549 13.5 8.99999 12.6045 8.99999 11.5C8.99999 10.3955 9.89549 9.5 11 9.5C11 8.1365 11.547 6.902 12.432 6H12.382C12.1445 5.7345 12 5.384 12 5C12 4.1715 12.6715 3.5 13.5 3.5C13.935 3.5 14.323 3.688 14.597 3.9835C14.808 3.4105 15.354 3 16 3C16.646 3 17.192 3.4105 17.403 3.9835C17.677 3.688 18.065 3.5 18.5 3.5C19.3285 3.5 20 4.1715 20 5C20 5.384 19.8555 5.7345 19.618 6H19.568C20.453 6.902 21 8.1365 21 9.5C22.1045 9.5 23 10.3955 23 11.5C23 12.6045 22.1045 13.5 21 13.5H20.8995C20.6105 14.923 19.7175 16.126 18.5 16.8305V19L24.395 20.842C24.4635 20.8635 24.526 20.8955 24.5925 20.9215C25.6025 20.4495 26.457 19.7165 27.0805 18.781L27.81 17.687L27.121 17.515Z" fill="#C8C8C8"/>
<path d="M27 23.7055C27 22.166 26.013 20.8235 24.544 20.3645L19 18.6325V17.104C20.105 16.3815 20.932 15.2725 21.2945 13.9705C22.533 13.8225 23.5 12.7775 23.5 11.5C23.5 10.285 22.628 9.272 21.477 9.048C21.3825 7.892 20.9325 6.8355 20.232 5.992C20.404 5.6915 20.5 5.3515 20.5 5C20.5 3.897 19.603 3 18.5 3C18.167 3 17.84 3.0855 17.55 3.244C17.177 2.7835 16.6095 2.5 16 2.5C15.3905 2.5 14.823 2.7835 14.45 3.244C14.16 3.0855 13.833 3 13.5 3C12.397 3 11.5 3.897 11.5 5C11.5 5.3515 11.596 5.6915 11.768 5.992C11.0675 6.836 10.6175 7.8925 10.523 9.048C9.372 9.272 8.5 10.285 8.5 11.5C8.5 12.7775 9.467 13.8225 10.7055 13.97C11.0675 15.2725 11.895 16.381 13 17.1035V18.632L7.456 20.3645C5.987 20.8235 5 22.1665 5 23.7055V27.5H6V31.5H26V27.5H27V23.7055ZM22.2625 24.9695C22.7385 25.4455 23 26.0775 23 26.75C23 27.4225 22.7385 28.0545 22.2625 28.5305L21.5 29.293V30.5H10.5V29.293L9.7375 28.5305C9.2615 28.0545 9 27.4225 9 26.75C9 26.0775 9.2615 25.4455 9.7375 24.9695C10.229 24.478 10.5 23.824 10.5 23.1285V20.461L11.5 20.1485V24H20.5V20.149L21.5 20.4615V23.129C21.5 23.824 21.771 24.478 22.2625 24.9695ZM18.5 7.5V8.5H17.5V7.5H16.5V8.5H15.5V7.5H14.5V8.5H13.5V7.5H12.5V8.5H11.616C12.0725 6.499 13.863 5 16 5C18.137 5 19.9275 6.499 20.384 8.5H19.5V7.5H18.5ZM22.5 11.5C22.5 12.1585 22.0705 12.7135 21.479 12.9145C21.4895 12.777 21.5 12.64 21.5 12.5V10.092C22.0805 10.299 22.5 10.849 22.5 11.5ZM19.5 5C19.5 5.0805 19.487 5.1595 19.468 5.2365C18.973 4.833 18.4055 4.518 17.79 4.3055C17.9815 4.1095 18.2315 4 18.5 4C19.0515 4 19.5 4.4485 19.5 5ZM16 3.5C16.384 3.5 16.7265 3.7325 16.8905 4.079C16.6 4.031 16.304 4 16 4C15.696 4 15.4 4.031 15.1095 4.079C15.2735 3.7325 15.616 3.5 16 3.5ZM13.5 4C13.7685 4 14.0185 4.1095 14.2095 4.305C13.594 4.5175 13.0265 4.833 12.5315 5.236C12.513 5.159 12.5 5.0805 12.5 5C12.5 4.4485 12.9485 4 13.5 4ZM9.5 11.5C9.5 10.849 9.9195 10.299 10.5 10.092V12.5C10.5 12.64 10.5105 12.777 10.521 12.9145C9.9295 12.7135 9.5 12.1585 9.5 11.5ZM11.5 12.5V9.5H20.5V12.5C20.5 14.981 18.4815 17 16 17C13.5185 17 11.5 14.981 11.5 12.5ZM16 18C16.706 18 17.379 17.8615 18 17.618V18.793L16 20.793L14 18.793V17.618C14.621 17.8615 15.294 18 16 18ZM13.3605 19.5675L16 22.207L18.6395 19.5675L19.5 19.8365V23H12.5V19.8365L13.3605 19.5675ZM6 23.7055C6 22.606 6.705 21.647 7.754 21.3195L9.5 20.7735V23.1285C9.5 23.5565 9.333 23.9595 9.0305 24.2625C8.4255 24.8675 8.0715 25.6545 8.0125 26.5H6V23.7055ZM7 27.5H8.082C8.223 28.153 8.5465 28.7535 9.03 29.2375L9.5 29.707V30.5H7V27.5ZM25 30.5H22.5V29.707L22.9695 29.2375C23.4535 28.754 23.7765 28.1535 23.9175 27.5H25V30.5ZM26 26.5H23.988C23.929 25.6545 23.575 24.8675 22.97 24.2625C22.667 23.9595 22.5 23.557 22.5 23.1285V20.7735L24.246 21.319C25.295 21.647 26 22.606 26 23.7055V26.5Z" fill="#C8C8C8"/>
<path d="M18.5 11.5C18.7761 11.5 19 11.2761 19 11C19 10.7239 18.7761 10.5 18.5 10.5C18.2239 10.5 18 10.7239 18 11C18 11.2761 18.2239 11.5 18.5 11.5Z" fill="#C8C8C8"/>
<path d="M13.5 11.5C13.7761 11.5 14 11.2761 14 11C14 10.7239 13.7761 10.5 13.5 10.5C13.2239 10.5 13 10.7239 13 11C13 11.2761 13.2239 11.5 13.5 11.5Z" fill="#C8C8C8"/>
<path d="M18 13.5H17C17 14.0515 16.5515 14.5 16 14.5C15.4485 14.5 15 14.0515 15 13.5H14C14 14.603 14.897 15.5 16 15.5C17.103 15.5 18 14.603 18 13.5Z" fill="#C8C8C8"/>
<path d="M17.5 27H11.5V28H17.5V27Z" fill="#C8C8C8"/>
<path d="M20.5 27H18.5V28H20.5V27Z" fill="#C8C8C8"/>
</svg>
