<svg width="15" height="15" viewBox="0 0 15 15" fill="none" xmlns="http://www.w3.org/2000/svg">
<g clip-path="url(#clip0)">
<path d="M12.5053 10.4585H0.759315C0.340004 10.4585 0 10.1186 0 9.69921V3.45463C0 3.03532 0.340004 2.69531 0.759315 2.69531H12.5053C12.9246 2.69531 13.2646 3.03532 13.2646 3.45463V9.69921C13.2646 10.1186 12.9246 10.4585 12.5053 10.4585Z" fill="#10BB67"/>
<path d="M12.5053 2.69531H12.4717V8.82797C12.4717 9.26674 12.116 9.62242 11.6771 9.62242H0V9.69921C0 10.1186 0.340004 10.4585 0.759315 10.4585H12.5053C12.9246 10.4585 13.2646 10.1186 13.2646 9.69921V3.45463C13.2646 3.03532 12.9246 2.69531 12.5053 2.69531Z" fill="#0D9653"/>
<path d="M1.35316 5.0862C1.22408 5.1123 1.13184 5.22548 1.13184 5.35709V7.67886C1.13184 7.81024 1.22442 7.92376 1.35316 7.94974C1.82306 8.0445 2.1832 8.43497 2.23745 8.91333C2.25324 9.05318 2.37123 9.15824 2.51199 9.15824H10.7527C10.8931 9.15824 11.0114 9.05295 11.0272 8.91333C11.0814 8.43497 11.4416 8.0445 11.9115 7.94974C12.0406 7.92365 12.1328 7.81058 12.1328 7.67886V5.35709C12.1328 5.22571 12.0403 5.1123 11.9115 5.0862C11.4745 4.99808 11.1304 4.65385 11.0422 4.21703C11.0162 4.08794 10.903 3.9957 10.7714 3.9957H2.49323C2.36185 3.9957 2.24844 4.08817 2.22246 4.21703C2.13422 4.65385 1.7901 4.99808 1.35316 5.0862Z" fill="#32D736"/>
<path d="M11.2998 4.73294V6.51753C11.2998 6.80798 11.1266 7.07005 10.8599 7.18507C10.5734 7.30855 10.3499 7.54865 10.2478 7.8439C10.1475 8.13378 9.87064 8.32524 9.56394 8.32524H1.98395C2.1254 8.49359 2.21272 8.69763 2.23721 8.91347C2.25311 9.05332 2.3711 9.15826 2.51175 9.15826H10.7526C10.8931 9.15826 11.0114 9.05297 11.0272 8.91335C11.0814 8.43499 11.4416 8.04452 11.9115 7.94976C12.0406 7.92367 12.1328 7.8106 12.1328 7.67888V5.3571C12.1328 5.22572 12.0403 5.11231 11.9116 5.08622C11.6701 5.03747 11.457 4.91044 11.2998 4.73294Z" fill="#2AB52D"/>
<path d="M8.3456 6.57691C8.3456 7.52322 7.5785 8.29021 6.6323 8.29021C5.68599 8.29021 4.91901 7.52322 4.91901 6.57691C4.91901 5.63071 5.68599 4.86362 6.6323 4.86362C7.5785 4.86362 8.3456 5.63071 8.3456 6.57691Z" fill="#E1E3FA"/>
<path d="M15 9.67804C15 11.1407 13.8143 12.3264 12.3516 12.3264C10.889 12.3264 9.70325 11.1407 9.70325 9.67804C9.70325 8.21537 10.889 7.02965 12.3516 7.02965C13.8143 7.02965 15 8.21537 15 9.67804Z" fill="#17ACE8"/>
<path d="M14.1998 7.7814C14.3897 8.15826 14.4969 8.58375 14.4969 9.03442C14.4969 10.5747 13.2482 11.8233 11.708 11.8233C11.2573 11.8233 10.8317 11.7161 10.455 11.5263C10.9361 12.0197 11.6079 12.3264 12.3516 12.3264C13.8143 12.3264 15 11.1407 15 9.67803C15 8.93439 14.6934 8.26251 14.1998 7.7814Z" fill="#1391C4"/>
<path d="M13.7214 9.45168H12.578V8.3083C12.578 8.18333 12.4766 8.08194 12.3516 8.08194C12.2266 8.08194 12.1252 8.18333 12.1252 8.3083V9.45168H10.982C10.8569 9.45168 10.7556 9.55296 10.7556 9.67805C10.7556 9.80302 10.8569 9.90441 10.982 9.90441H12.1252V11.0477C12.1252 11.1728 12.2266 11.274 12.3516 11.274C12.4767 11.274 12.578 11.1728 12.578 11.0477V9.90441H13.7214C13.8463 9.90441 13.9476 9.80302 13.9476 9.67805C13.9476 9.55308 13.8463 9.45168 13.7214 9.45168Z" fill="#E1E3FA"/>
</g>
<defs>
<clipPath id="clip0">
<rect width="15" height="15" fill="white"/>
</clipPath>
</defs>
</svg>
