<svg width="15" height="15" viewBox="0 0 15 15" fill="none" xmlns="http://www.w3.org/2000/svg">
<path d="M13.433 7.36107C13.433 11.0704 10.4259 14.0775 6.71654 14.0775C3.00705 14.0775 0 11.0704 0 7.36107C0 3.65158 3.00705 0.644531 6.71654 0.644531C10.4259 0.644531 13.433 3.65158 13.433 7.36107Z" fill="#FEB836"/>
<path d="M6.71649 0.644531C6.51038 0.644531 6.30576 0.653915 6.10435 0.672112C9.52716 0.980988 12.2102 3.8578 12.2102 7.36107C12.2102 10.8643 9.52682 13.741 6.104 14.05C6.30542 14.0681 6.51038 14.0775 6.71649 14.0775C10.4259 14.0775 13.4329 11.0704 13.4329 7.36095C13.4329 3.65158 10.4259 0.644531 6.71649 0.644531Z" fill="#D1972C"/>
<path d="M11.4448 7.36107C11.4448 9.97238 9.3279 12.0893 6.71658 12.0893C4.10527 12.0893 1.98834 9.97238 1.98834 7.36107C1.98834 4.74976 4.10527 2.63283 6.71658 2.63283C9.3279 2.63283 11.4448 4.74976 11.4448 7.36107Z" fill="#FFDC45"/>
<path d="M6.71653 2.63283C6.50928 2.63283 6.30454 2.64622 6.10439 2.67208C8.42697 2.97192 10.2221 4.95689 10.2221 7.36107C10.2221 9.76524 8.4217 11.7495 6.09912 12.0494C6.29928 12.0752 6.50928 12.0893 6.71653 12.0893C9.32785 12.0893 11.4448 9.97238 11.4448 7.36107C11.4448 4.74976 9.32785 2.63283 6.71653 2.63283Z" fill="#D6B93A"/>
</svg>
